<svg xmlns="http://www.w3.org/2000/svg" xmlns:xlink="http://www.w3.org/1999/xlink" viewBox="0 0 423.98 122.29"><defs><style>.cls-1{fill:url(#linear-gradient);}.cls-2{fill:url(#linear-gradient-2);}.cls-3{font-size:44.82px;fill:#fff;font-family:Tahoma-Bold, Tahoma;font-weight:700;}</style><linearGradient id="linear-gradient" y1="53.87" x2="286.49" y2="53.87" gradientUnits="userSpaceOnUse"><stop offset="0" stop-color="#1dd8ff"/><stop offset="1" stop-color="#32dc73"/></linearGradient><linearGradient id="linear-gradient-2" x1="118.45" y1="122.02" x2="118.8" y2="122.02" xlink:href="#linear-gradient"/></defs><title>logo_1</title><g id="Layer_2" data-name="Layer 2"><g id="Layer_1-2" data-name="Layer 1"><path class="cls-1" d="M282.22,95.26H236.81a60.6,60.6,0,0,0-10.72-27.82h30a4.27,4.27,0,0,0,4.27-4.27h0a4.27,4.27,0,0,0-4.27-4.27H218.77a60.73,60.73,0,0,0-42.46-17.24q-1.73,0-3.43.1a60.61,60.61,0,0,0-5.57-12.11h55.18a4.27,4.27,0,0,0,4.27-4.27h0a4.27,4.27,0,0,0-4.27-4.27H161.13a60.94,60.94,0,0,0-104,20.68h0A60.93,60.93,0,0,0,0,102.6c0,1.73.07,3.45.22,5.14H237c.11-1.3.17-2.61.19-3.93h45a4.27,4.27,0,0,0,4.27-4.27h0A4.27,4.27,0,0,0,282.22,95.26Z"/><path class="cls-2" d="M118.62,122.29c.06-.18.12-.35.18-.53l-.35,0C118.5,121.95,118.56,122.12,118.62,122.29Z"/><text class="cls-3" transform="translate(36.84 94.2)">CLIMER</text><text class="cls-3" transform="translate(237.27 94.2)">weather</text></g></g></svg>